<?xml version="1.0" standalone="no"?>
<!DOCTYPE svg PUBLIC "-//W3C//DTD SVG 20010904//EN"
 "http://www.w3.org/TR/2001/REC-SVG-20010904/DTD/svg10.dtd">
<svg version="1.0" xmlns="http://www.w3.org/2000/svg"
 width="4000.000000pt" height="4000.000000pt" viewBox="0 0 4000.000000 4000.000000"
 preserveAspectRatio="xMidYMid meet">
<metadata>
Created by potrace 1.14, written by Peter Selinger 2001-2017
</metadata>
<g transform="translate(0.000000,4000.000000) scale(0.100000,-0.100000)"
fill="#000000" stroke="none">
<path d="M20067 30404 c-1 -1 -93 -5 -205 -8 -111 -4 -219 -9 -240 -11 -20 -2
-75 -6 -122 -10 -47 -3 -103 -8 -125 -10 -22 -2 -67 -7 -100 -10 -112 -11
-150 -15 -185 -20 -19 -2 -55 -7 -80 -10 -1196 -153 -2323 -549 -3330 -1170
-418 -257 -756 -509 -1160 -863 -97 -86 -494 -483 -590 -591 -822 -924 -1439
-2051 -1789 -3266 -72 -251 -176 -693 -204 -870 -3 -16 -17 -97 -31 -180 -14
-82 -28 -172 -31 -200 -4 -27 -9 -63 -11 -80 -11 -71 -14 -92 -18 -135 -5 -46
-23 -214 -31 -285 -2 -22 -7 -80 -10 -130 -4 -49 -8 -106 -10 -125 -27 -273
-27 -1209 0 -1540 2 -25 6 -79 10 -120 10 -122 32 -346 40 -400 2 -14 6 -47
10 -75 3 -27 15 -113 26 -190 12 -77 23 -156 26 -175 22 -164 138 -688 203
-925 17 -60 37 -133 45 -160 31 -113 151 -471 212 -630 300 -782 694 -1492
1187 -2135 77 -101 297 -366 353 -427 16 -17 48 -52 72 -79 159 -177 461 -470
646 -629 39 -33 72 -63 75 -66 13 -14 316 -253 400 -315 1019 -750 2158 -1246
3397 -1479 154 -28 412 -70 497 -80 32 -4 68 -8 80 -10 11 -2 48 -6 81 -10 33
-3 98 -10 145 -15 47 -5 126 -12 175 -15 50 -4 104 -8 120 -10 193 -25 1096
-26 1410 0 28 2 88 6 135 10 133 9 421 38 500 50 14 2 76 11 137 19 203 28
414 65 583 102 63 14 126 28 140 30 196 38 755 203 1000 296 710 269 1274 579
1867 1025 297 223 485 385 748 642 541 532 965 1095 1340 1779 84 155 275 546
275 565 0 9 -83 50 -222 110 -278 119 -474 204 -513 222 -31 15 -921 401
-1180 512 -82 36 -184 80 -225 98 -41 18 -142 62 -225 98 -82 36 -292 127
-465 202 -173 75 -325 141 -338 146 -21 8 -25 4 -48 -49 -80 -182 -237 -463
-377 -672 -61 -91 -241 -334 -271 -366 -6 -6 -36 -41 -66 -77 -78 -93 -348
-359 -455 -448 -502 -421 -1058 -706 -1710 -879 -119 -32 -313 -75 -385 -85
-24 -4 -47 -8 -50 -10 -3 -2 -30 -6 -60 -10 -30 -3 -62 -8 -70 -10 -8 -2 -40
-7 -70 -10 -30 -3 -66 -8 -80 -10 -14 -2 -59 -6 -100 -10 -41 -4 -88 -9 -105
-11 -66 -8 -341 -18 -520 -18 -244 0 -496 15 -650 39 -471 73 -764 152 -1144
307 -186 76 -446 207 -602 303 -9 6 -32 18 -50 29 -124 69 -443 301 -599 436
-153 132 -340 318 -490 490 -351 398 -701 980 -915 1520 -233 586 -374 1249
-412 1930 -15 254 -6 966 12 1024 2 6 6 52 10 101 8 130 59 477 95 651 77 373
206 793 335 1089 215 496 490 945 826 1350 115 138 430 452 569 567 762 630
1592 974 2585 1072 141 14 785 15 920 1 351 -35 554 -65 785 -117 1022 -229
1833 -768 2401 -1598 152 -221 319 -522 425 -765 26 -60 49 -111 50 -113 1 -2
487 196 569 233 17 8 190 80 385 161 195 80 571 236 835 346 264 110 545 227
625 260 80 33 159 66 175 73 17 7 163 68 325 135 382 159 353 143 335 183 -8
17 -44 104 -81 192 -87 211 -249 539 -370 750 -218 382 -545 837 -803 1120
-228 249 -362 380 -631 619 -19 17 -82 70 -140 117 -843 688 -1814 1170 -2900
1439 -254 62 -389 91 -650 135 -208 35 -291 48 -405 60 -33 4 -73 9 -90 11
-16 2 -77 8 -135 14 -58 6 -121 12 -140 15 -19 2 -78 7 -130 10 -52 4 -115 8
-140 10 -139 12 -903 28 -913 19z"/>
<path d="M21108 11910 c-220 -37 -411 -186 -489 -381 -31 -79 -48 -189 -49
-316 l0 -113 -177 -2 -178 -3 0 -182 -1 -183 178 0 178 0 0 -790 0 -790 213 0
214 0 1 778 c0 427 1 783 1 790 1 9 57 12 246 12 l245 0 0 185 0 185 -245 0
-245 0 -1 23 c-8 153 13 243 70 309 90 102 240 122 419 57 29 -10 56 -19 61
-19 4 0 8 92 8 205 l0 205 -40 11 c-107 29 -298 37 -409 19z"/>
<path d="M15025 11724 c-46 -24 -66 -45 -86 -92 -32 -74 -21 -151 30 -205 34
-38 68 -55 125 -62 65 -9 140 27 179 87 25 38 28 50 25 110 -3 57 -8 73 -34
105 -17 21 -46 46 -65 55 -43 22 -134 23 -174 2z"/>
<path d="M22042 11723 c-88 -43 -125 -156 -83 -248 61 -136 247 -151 332 -26
20 29 24 47 24 107 0 66 -3 76 -31 111 -17 21 -46 46 -65 55 -43 23 -133 23
-177 1z"/>
<path d="M27443 11341 c-1 -15 6 -21 30 -23 35 -3 34 0 36 -115 1 -46 4 -53
21 -53 18 0 20 7 20 85 l0 85 30 0 c23 0 30 4 30 20 0 18 -7 20 -83 20 -75 0
-83 -2 -84 -19z"/>
<path d="M27639 11353 c-1 -9 -1 -185 0 -195 1 -5 10 -8 21 -8 16 0 20 7 21
38 1 20 0 47 -1 60 -1 12 3 22 9 22 6 0 10 -3 9 -7 -2 -8 8 -59 19 -96 3 -12
12 -17 26 -15 16 2 24 16 38 73 l17 70 1 -73 c1 -70 2 -73 23 -70 22 3 23 7
23 106 l0 102 -35 0 c-36 0 -36 0 -48 -60 -7 -33 -17 -58 -22 -55 -5 3 -14 30
-21 60 -12 53 -13 55 -46 55 -18 0 -33 -3 -34 -7z"/>
<path d="M13383 11146 c-321 -61 -568 -246 -711 -531 -34 -68 -78 -207 -87
-275 -3 -25 -9 -53 -12 -64 -9 -33 -5 -269 7 -341 54 -335 241 -594 534 -742
226 -114 547 -136 801 -56 143 45 273 125 373 232 81 84 179 236 170 262 -3 8
-370 172 -373 166 -1 -1 -14 -23 -29 -49 -94 -163 -253 -255 -451 -263 -114
-4 -191 12 -290 60 -299 146 -415 583 -243 917 116 225 358 341 614 295 152
-28 264 -104 338 -231 22 -37 44 -65 50 -63 79 31 363 151 369 157 4 4 -10 41
-31 83 -35 67 -61 106 -122 180 -38 47 -170 141 -253 181 -139 67 -232 87
-422 92 -109 2 -183 -1 -232 -10z"/>
<path d="M16765 11150 c-180 -34 -332 -126 -452 -275 l-32 -40 -1 133 0 132
-204 0 -203 0 -1 -975 0 -975 214 0 214 0 0 563 c0 631 2 645 69 782 41 84
102 153 180 206 120 80 315 88 459 17 108 -53 168 -143 189 -283 5 -33 9 -336
8 -672 l0 -613 213 0 213 0 -3 713 c-4 771 -2 739 -60 887 -24 61 -91 169
-135 215 -83 89 -213 156 -348 180 -91 16 -250 18 -320 5z"/>
<path d="M18841 11149 c-470 -83 -808 -518 -804 -1032 2 -195 35 -340 113
-497 169 -338 503 -534 901 -529 287 3 496 84 685 265 63 60 152 171 180 225
l15 30 -118 55 c-65 31 -138 65 -163 76 -25 11 -52 24 -61 29 -13 6 -23 -3
-48 -41 -45 -69 -150 -162 -223 -197 -82 -40 -144 -54 -248 -58 -267 -10 -493
142 -574 387 -13 40 -26 94 -29 121 l-6 47 748 0 c720 0 749 1 753 18 3 11 5
66 6 123 1 485 -258 847 -687 961 -88 23 -350 33 -440 17z m360 -378 c71 -23
166 -83 216 -140 55 -60 101 -160 117 -248 l6 -33 -530 0 -529 0 13 43 c60
199 217 353 401 392 83 17 225 11 306 -14z"/>
<path d="M23710 11136 c-152 -44 -292 -147 -367 -269 l-38 -61 -3 147 -3 147
-203 0 -203 0 0 -975 0 -975 213 0 214 0 1 553 c1 581 1 580 25 667 39 137
143 268 260 328 107 55 258 62 417 19 55 -15 100 -27 100 -27 1 0 2 95 1 211
-1 132 -5 214 -12 221 -19 19 -146 39 -237 37 -59 -1 -117 -9 -165 -23z"/>
<path d="M25324 11140 c-149 -38 -299 -134 -385 -247 l-44 -58 -3 133 -3 132
-203 0 -203 0 0 -975 0 -975 214 0 213 0 0 563 c0 566 3 633 37 727 44 122
137 236 229 283 92 47 213 56 328 26 44 -12 122 -57 146 -86 46 -54 85 -149
94 -228 3 -22 5 -320 5 -662 l1 -623 213 0 213 0 1 573 c1 549 1 575 22 656
62 247 240 397 459 387 181 -9 287 -90 335 -256 17 -60 19 -111 20 -712 l1
-648 213 0 213 0 -1 678 c-1 742 -4 788 -59 930 -82 213 -227 338 -450 387
-100 22 -325 14 -415 -15 -174 -56 -299 -148 -408 -303 -12 -17 -15 -15 -37
30 -14 26 -56 80 -95 119 -83 84 -197 146 -314 170 -95 19 -246 17 -337 -6z"/>
<path d="M14893 10125 l0 -975 214 0 213 0 0 975 0 975 -213 0 -214 0 0 -975z"/>
<path d="M21913 10125 l0 -975 214 0 213 0 0 975 0 975 -213 0 -214 0 0 -975z"/>
</g>
</svg>
